<?xml version="1.0" standalone="no"?><!DOCTYPE svg PUBLIC "-//W3C//DTD SVG 1.1//EN" "http://www.w3.org/Graphics/SVG/1.1/DTD/svg11.dtd"><svg class="icon" width="200px" height="200.00px" viewBox="0 0 1024 1024" version="1.1" xmlns="http://www.w3.org/2000/svg"><path d="M921.6 888.832a1707.52 1707.52 0 0 0-242.688-369.664 1973.248 1973.248 0 0 0 214.528-256L802.816 102.4a2679.808 2679.808 0 0 1-218.624 312.832 2969.6 2969.6 0 0 0-298.496-269.312L102.4 207.872a2020.352 2020.352 0 0 1 407.04 295.424l-25.6 28.16a2549.248 2549.248 0 0 1-320 293.888L153.6 921.6a3033.088 3033.088 0 0 0 443.904-325.12A2348.032 2348.032 0 0 1 822.272 870.4z" fill="#3E4055" /></svg>