<?xml version="1.0" standalone="no"?><!DOCTYPE svg PUBLIC "-//W3C//DTD SVG 1.1//EN" "http://www.w3.org/Graphics/SVG/1.1/DTD/svg11.dtd"><svg class="icon" width="200px" height="200.00px" viewBox="0 0 1024 1024" version="1.1" xmlns="http://www.w3.org/2000/svg"><path d="M262.656 25.6h-12.8A224.768 224.768 0 0 0 25.6 249.856v12.8A224.768 224.768 0 0 0 249.856 486.4H435.2a51.2 51.2 0 0 0 51.2-51.2V249.856A224.768 224.768 0 0 0 262.656 25.6z m121.856 358.4H249.856A121.856 121.856 0 0 1 128 262.656v-12.8A121.856 121.856 0 0 1 249.856 128h12.8A121.856 121.856 0 0 1 384 249.856zM768 537.6h-179.2a51.2 51.2 0 0 0-51.2 51.2V768a230.4 230.4 0 1 0 230.4-230.4z m0 358.4a128 128 0 0 1-128-128v-128H768a128 128 0 0 1 0 256zM588.8 486.4H768A230.4 230.4 0 1 0 537.6 256v179.2a51.2 51.2 0 0 0 51.2 51.2zM435.2 537.6H256A230.4 230.4 0 1 0 486.4 768v-179.2a51.2 51.2 0 0 0-51.2-51.2z m-51.2 230.4A128 128 0 1 1 256 640h128z" fill="#3E4055" /></svg>