<?xml version="1.0" standalone="no"?><!DOCTYPE svg PUBLIC "-//W3C//DTD SVG 1.1//EN" "http://www.w3.org/Graphics/SVG/1.1/DTD/svg11.dtd"><svg class="icon" width="200px" height="200.00px" viewBox="0 0 1024 1024" version="1.1" xmlns="http://www.w3.org/2000/svg"><path d="M211.869285 94.183889l88.655704-51.186896 511.868961 886.557041-88.655704 51.186896zM319.668888 884.509566a131.038454 131.038454 0 0 1-180.177874 0 127.96724 127.96724 0 0 1 0-180.177875L352.428502 491.394203l-51.186897-91.624544-233.924115 231.87664a229.829164 229.829164 0 0 0 325.036791 325.03679l145.370785-145.370785-51.186897-91.624544zM956.945745 67.054834a230.341033 230.341033 0 0 0-325.03679 0L487.050038 212.425619l51.186897 91.624544 164.821805-164.821805a127.455371 127.455371 0 0 1 180.177875 180.177874l-211.401881 212.937488 51.186896 91.624544 232.388508-232.388508a230.341033 230.341033 0 0 0 0-325.036791z" fill="#3E4055" /></svg>