<?xml version="1.0" standalone="no"?><!DOCTYPE svg PUBLIC "-//W3C//DTD SVG 1.1//EN" "http://www.w3.org/Graphics/SVG/1.1/DTD/svg11.dtd"><svg class="icon" width="200px" height="200.00px" viewBox="0 0 1024 1024" version="1.1" xmlns="http://www.w3.org/2000/svg"><path d="M870.799848 716.788173a153.594394 153.594394 0 0 0-144.378731 102.396263H256.422272a142.842786 142.842786 0 0 1-153.594393-127.995328A142.842786 142.842786 0 0 1 256.422272 563.193779h111.611927a153.594394 153.594394 0 0 0 288.245479 0H768.403585a244.727067 244.727067 0 0 0 255.990656-230.39159A244.727067 244.727067 0 0 0 768.403585 102.410598H298.40474a153.594394 153.594394 0 1 0 0 102.396263H768.403585a142.842786 142.842786 0 0 1 153.594394 127.995328A142.842786 142.842786 0 0 1 768.403585 460.797517h-111.611926a153.594394 153.594394 0 0 0-288.75746 0H256.422272a244.727067 244.727067 0 0 0-255.990656 230.391591A244.727067 244.727067 0 0 0 256.422272 921.580698h469.998845A153.594394 153.594394 0 1 0 870.799848 716.788173z" fill="#3E4055" /></svg>