<?xml version="1.0" standalone="no"?><!DOCTYPE svg PUBLIC "-//W3C//DTD SVG 1.1//EN" "http://www.w3.org/Graphics/SVG/1.1/DTD/svg11.dtd"><svg class="icon" width="200px" height="200.00px" viewBox="0 0 1024 1024" version="1.1" xmlns="http://www.w3.org/2000/svg"><path d="M960.790123 164.345679H50.567901a50.567901 50.567901 0 0 0 0 101.135802h50.567901v606.814815a151.703704 151.703704 0 0 0 151.703704 151.703704h505.679013a151.703704 151.703704 0 0 0 151.703703-151.703704v-606.814815h50.567901a50.567901 50.567901 0 0 0 0-101.135802z m-151.703703 707.950617a50.567901 50.567901 0 0 1-50.567901 50.567902H252.839506a50.567901 50.567901 0 0 1-50.567901-50.567902v-606.814815h606.814815zM303.407407 113.777778h404.54321a50.567901 50.567901 0 0 0 0-101.135803H303.407407a50.567901 50.567901 0 0 0 0 101.135803z" fill="#3E4055" /><path d="M404.54321 745.876543a50.567901 50.567901 0 0 0 50.567901-50.567901v-252.839506a50.567901 50.567901 0 0 0-101.135802 0v252.839506a50.567901 50.567901 0 0 0 50.567901 50.567901zM606.814815 745.876543a50.567901 50.567901 0 0 0 50.567901-50.567901v-252.839506a50.567901 50.567901 0 0 0-101.135802 0v252.839506a50.567901 50.567901 0 0 0 50.567901 50.567901z" fill="#3E4055" /></svg>