<?xml version="1.0" standalone="no"?><!DOCTYPE svg PUBLIC "-//W3C//DTD SVG 1.1//EN" "http://www.w3.org/Graphics/SVG/1.1/DTD/svg11.dtd"><svg class="icon" width="200px" height="200.00px" viewBox="0 0 1024 1024" version="1.1" xmlns="http://www.w3.org/2000/svg"><path d="M818.543843 921.818719H205.456157a51.09064 51.09064 0 0 0 0 102.181281h613.087686a51.09064 51.09064 0 0 0 0-102.181281zM242.752325 392.519684L460.90936 171.808117v548.713479a51.09064 51.09064 0 0 0 102.18128 0V171.808117l218.157035 220.20066a51.09064 51.09064 0 0 0 72.037803 0 46.492483 46.492483 0 0 0 0-67.950552l-306.543842-309.609281a55.177892 55.177892 0 0 0-74.592336 0l-306.543842 309.609281a46.492483 46.492483 0 0 0 0 67.950552 51.09064 51.09064 0 0 0 77.146867 0.510907z" fill="#3E4055" /></svg>