<?xml version="1.0" standalone="no"?><!DOCTYPE svg PUBLIC "-//W3C//DTD SVG 1.1//EN" "http://www.w3.org/Graphics/SVG/1.1/DTD/svg11.dtd"><svg class="icon" width="200px" height="200.00px" viewBox="0 0 1024 1024" version="1.1" xmlns="http://www.w3.org/2000/svg"><path d="M51.2 333.824h468.48a204.8 204.8 0 0 0 394.752 0H972.8a51.2 51.2 0 0 0 0-102.4h-58.368a204.8 204.8 0 0 0-395.776 0H51.2a51.2 51.2 0 0 0 0 102.4z m665.6-153.6a102.4 102.4 0 1 1-102.4 102.4 102.4 102.4 0 0 1 102.4-103.424zM972.8 692.224H504.832a204.8 204.8 0 0 0-395.776 0H51.2a51.2 51.2 0 0 0 0 102.4h58.88a204.8 204.8 0 0 0 394.752 0H972.8a51.2 51.2 0 0 0 0-102.4z m-665.6 153.6a102.4 102.4 0 1 1 102.4-102.4 102.4 102.4 0 0 1-102.4 101.376z" fill="#3E4055" /></svg>