<?xml version="1.0" standalone="no"?><!DOCTYPE svg PUBLIC "-//W3C//DTD SVG 1.1//EN" "http://www.w3.org/Graphics/SVG/1.1/DTD/svg11.dtd"><svg class="icon" width="200px" height="200.00px" viewBox="0 0 1024 1024" version="1.1" xmlns="http://www.w3.org/2000/svg"><path d="M921.6 256h-51.2a256 256 0 0 0-256-256H409.6a256 256 0 0 0-256 256H102.4a102.4 102.4 0 0 0-102.4 102.4v563.2a102.4 102.4 0 0 0 102.4 102.4h819.2a102.4 102.4 0 0 0 102.4-102.4V358.4a102.4 102.4 0 0 0-102.4-102.4zM409.6 102.4h204.8a153.6 153.6 0 0 1 153.6 153.6H256a153.6 153.6 0 0 1 153.6-153.6zM102.4 921.6V358.4h819.2v563.2z" fill="#3E4055" /><path d="M512 512a51.2 51.2 0 0 0-51.2 51.2v153.6a51.2 51.2 0 0 0 102.4 0v-153.6a51.2 51.2 0 0 0-51.2-51.2z" fill="#3E4055" /></svg>