<?xml version="1.0" standalone="no"?><!DOCTYPE svg PUBLIC "-//W3C//DTD SVG 1.1//EN" "http://www.w3.org/Graphics/SVG/1.1/DTD/svg11.dtd"><svg class="icon" width="200px" height="200.00px" viewBox="0 0 1024 1024" version="1.1" xmlns="http://www.w3.org/2000/svg"><path d="M921.6 768h-102.4v-102.4a51.2 51.2 0 0 0-102.4 0v102.4h-102.4a51.2 51.2 0 0 0 0 102.4h102.4v102.4a51.2 51.2 0 0 0 102.4 0v-102.4h102.4a51.2 51.2 0 0 0 0-102.4zM512 512a256 256 0 1 0-256-256 256 256 0 0 0 256 256z m0-409.6a153.6 153.6 0 1 1-153.6 153.6 153.6 153.6 0 0 1 153.6-153.6zM614.4 644.096a51.2 51.2 0 0 0-34.304-63.488A409.6 409.6 0 0 0 51.2 972.8a51.2 51.2 0 0 0 102.4 0 307.2 307.2 0 0 1 394.752-294.4 51.2 51.2 0 0 0 66.048-34.304z" fill="#3E4055" /></svg>