<?xml version="1.0" standalone="no"?><!DOCTYPE svg PUBLIC "-//W3C//DTD SVG 1.1//EN" "http://www.w3.org/Graphics/SVG/1.1/DTD/svg11.dtd"><svg class="icon" width="200px" height="200.00px" viewBox="0 0 1024 1024" version="1.1" xmlns="http://www.w3.org/2000/svg"><path d="M409.6 460.8H51.2a51.2 51.2 0 0 1-51.2-51.2V51.2a51.2 51.2 0 0 1 51.2-51.2h358.4a51.2 51.2 0 0 1 51.2 51.2v358.4a51.2 51.2 0 0 1-51.2 51.2zM102.4 358.4h256V102.4H102.4zM972.8 460.8h-358.4a51.2 51.2 0 0 1-51.2-51.2V51.2a51.2 51.2 0 0 1 51.2-51.2h358.4a51.2 51.2 0 0 1 51.2 51.2v358.4a51.2 51.2 0 0 1-51.2 51.2z m-307.2-102.4h256V102.4h-256zM409.6 1024H51.2a51.2 51.2 0 0 1-51.2-51.2v-358.4a51.2 51.2 0 0 1 51.2-51.2h358.4a51.2 51.2 0 0 1 51.2 51.2v358.4a51.2 51.2 0 0 1-51.2 51.2z m-307.2-102.4h256v-256H102.4zM972.8 1024h-358.4a51.2 51.2 0 0 1-51.2-51.2v-358.4a51.2 51.2 0 0 1 51.2-51.2h358.4a51.2 51.2 0 0 1 51.2 51.2v358.4a51.2 51.2 0 0 1-51.2 51.2z m-307.2-102.4h256v-256h-256z" fill="#3E4055" /></svg>