<?xml version="1.0" standalone="no"?><!DOCTYPE svg PUBLIC "-//W3C//DTD SVG 1.1//EN" "http://www.w3.org/Graphics/SVG/1.1/DTD/svg11.dtd"><svg class="icon" width="200px" height="200.00px" viewBox="0 0 1024 1024" version="1.1" xmlns="http://www.w3.org/2000/svg"><path d="M409.6 460.8H51.2a51.2 51.2 0 0 1-51.2-51.2V51.2a51.2 51.2 0 0 1 51.2-51.2h358.4a51.2 51.2 0 0 1 51.2 51.2v358.4a51.2 51.2 0 0 1-51.2 51.2zM409.6 1024H51.2a51.2 51.2 0 0 1-51.2-51.2v-358.4a51.2 51.2 0 0 1 51.2-51.2h358.4a51.2 51.2 0 0 1 51.2 51.2v358.4a51.2 51.2 0 0 1-51.2 51.2zM972.8 179.2h-358.4a51.2 51.2 0 0 1 0-102.4h358.4a51.2 51.2 0 0 1 0 102.4zM972.8 384h-358.4a51.2 51.2 0 0 1 0-102.4h358.4a51.2 51.2 0 0 1 0 102.4zM972.8 742.4h-358.4a51.2 51.2 0 0 1 0-102.4h358.4a51.2 51.2 0 0 1 0 102.4zM972.8 947.2h-358.4a51.2 51.2 0 0 1 0-102.4h358.4a51.2 51.2 0 0 1 0 102.4z" fill="#3E4055" /></svg>