<?xml version="1.0" standalone="no"?><!DOCTYPE svg PUBLIC "-//W3C//DTD SVG 1.1//EN" "http://www.w3.org/Graphics/SVG/1.1/DTD/svg11.dtd"><svg class="icon" width="200px" height="200.00px" viewBox="0 0 1024 1024" version="1.1" xmlns="http://www.w3.org/2000/svg"><path d="M512 0a512 512 0 1 0 512 512A512 512 0 0 0 512 0z m8.192 837.12a64 64 0 1 1 39.424-81.408 64 64 0 0 1-39.424 81.408z m43.008-291.328a45.056 45.056 0 0 0-26.112 29.696l-20.992 74.752a26.112 26.112 0 0 1-25.088 19.456 25.6 25.6 0 0 1-24.064-24.064L460.8 587.264a133.632 133.632 0 0 1 75.264-135.168A97.28 97.28 0 0 0 603.648 358.4a79.872 79.872 0 0 0-29.696-56.32 123.904 123.904 0 0 0-92.16-27.136A125.952 125.952 0 0 0 409.6 307.2a44.544 44.544 0 0 1-54.784 6.656h-2.56a43.008 43.008 0 0 1-19.968-32.256 44.544 44.544 0 0 1 13.312-36.864 219.136 219.136 0 0 1 278.528-18.944 175.616 175.616 0 0 1 72.192 124.928 204.8 204.8 0 0 1-133.12 195.072z" fill="#3E4055" /></svg>