<?xml version="1.0" standalone="no"?><!DOCTYPE svg PUBLIC "-//W3C//DTD SVG 1.1//EN" "http://www.w3.org/Graphics/SVG/1.1/DTD/svg11.dtd"><svg class="icon" width="200px" height="200.00px" viewBox="0 0 1024 1024" version="1.1" xmlns="http://www.w3.org/2000/svg"><path d="M818.281157 102.093719H205.718843a51.046859 51.046859 0 0 1 0-102.093719h612.562314a51.046859 51.046859 0 0 1 0 102.093719zM242.983051 594.185444L460.953141 373.663011v599.29013a51.046859 51.046859 0 0 0 102.093718 0V373.663011l217.97009 220.011964a51.046859 51.046859 0 0 0 71.976072 0 46.452642 46.452642 0 0 0 0-67.892323l-306.281157-309.343968a55.130608 55.130608 0 0 0-74.528414 0l-306.281157 309.343968a46.452642 46.452642 0 0 0 0 67.892323 51.046859 51.046859 0 0 0 77.080758 0.510469z" fill="#3E4055" /></svg>