<?xml version="1.0" standalone="no"?><!DOCTYPE svg PUBLIC "-//W3C//DTD SVG 1.1//EN" "http://www.w3.org/Graphics/SVG/1.1/DTD/svg11.dtd"><svg class="icon" width="200px" height="200.00px" viewBox="0 0 1024 1024" version="1.1" xmlns="http://www.w3.org/2000/svg"><path d="M662.016 361.984a232.96 232.96 0 0 0-45.056-34.304l-76.288 75.776a131.584 131.584 0 0 1 51.2 30.72 133.12 133.12 0 0 1 0 187.904l-262.656 260.608a133.12 133.12 0 0 1-187.904-187.904l94.208-94.72a312.832 312.832 0 0 1-17.408-126.976l-149.504 149.504a235.52 235.52 0 0 0 332.8 332.8l260.608-260.608a235.52 235.52 0 0 0 0-332.8z" fill="#3E4055" /><path d="M955.392 68.608a235.52 235.52 0 0 0-332.8 0L361.984 329.216a235.52 235.52 0 0 0 0 332.8 232.96 232.96 0 0 0 45.056 34.304l76.288-76.288a131.584 131.584 0 0 1-51.2-30.72 133.12 133.12 0 0 1 0-188.416l260.608-260.608a133.12 133.12 0 0 1 187.904 187.904l-91.648 94.72a313.344 313.344 0 0 1 17.408 127.488l148.48-148.48a235.52 235.52 0 0 0 0.512-333.312z" fill="#3E4055" /></svg>