<?xml version="1.0" standalone="no"?><!DOCTYPE svg PUBLIC "-//W3C//DTD SVG 1.1//EN" "http://www.w3.org/Graphics/SVG/1.1/DTD/svg11.dtd"><svg class="icon" width="200px" height="200.00px" viewBox="0 0 1024 1024" version="1.1" xmlns="http://www.w3.org/2000/svg"><path d="M995.173376 209.92a51.2 51.2 0 0 0-68.096 24.576A454.144 454.144 0 0 1 512.357376 460.8a464.384 464.384 0 0 1-415.232-227.84 51.2 51.2 0 0 0-91.648 46.08 546.304 546.304 0 0 0 190.464 197.632l-86.528 149.504a51.2 51.2 0 0 0 88.576 51.2l89.6-153.6A597.504 597.504 0 0 0 461.157376 563.2v204.8a51.2 51.2 0 0 0 102.4 0v-204.8a607.744 607.744 0 0 0 174.08-37.376l89.088 153.6a51.2 51.2 0 1 0 88.576-51.2L829.797376 478.208a521.728 521.728 0 0 0 189.44-200.192 51.2 51.2 0 0 0-24.064-68.096z" fill="#3E4055" /></svg>