<?xml version="1.0" standalone="no"?><!DOCTYPE svg PUBLIC "-//W3C//DTD SVG 1.1//EN" "http://www.w3.org/Graphics/SVG/1.1/DTD/svg11.dtd"><svg class="icon" width="200px" height="200.00px" viewBox="0 0 1024 1024" version="1.1" xmlns="http://www.w3.org/2000/svg"><path d="M921.6 204.8h-102.4V51.2a51.2 51.2 0 0 0-51.2-51.2H256a51.2 51.2 0 0 0-51.2 51.2v153.6H102.4a102.4 102.4 0 0 0-102.4 102.4v409.6a102.4 102.4 0 0 0 102.4 102.4h102.4v153.6a51.2 51.2 0 0 0 51.2 51.2h512a51.2 51.2 0 0 0 51.2-51.2v-153.6h102.4a102.4 102.4 0 0 0 102.4-102.4V307.2a102.4 102.4 0 0 0-102.4-102.4zM307.2 102.4h409.6v102.4H307.2z m409.6 819.2H307.2v-204.8h409.6z m204.8-204.8h-102.4v-51.2a51.2 51.2 0 0 0-51.2-51.2H256a51.2 51.2 0 0 0-51.2 51.2v51.2H102.4V307.2h819.2z" fill="#3E4055" /><path d="M768 409.6m-51.2 0a51.2 51.2 0 1 0 102.4 0 51.2 51.2 0 1 0-102.4 0Z" fill="#3E4055" /></svg>