<?xml version="1.0" standalone="no"?><!DOCTYPE svg PUBLIC "-//W3C//DTD SVG 1.1//EN" "http://www.w3.org/Graphics/SVG/1.1/DTD/svg11.dtd"><svg class="icon" width="200px" height="200.00px" viewBox="0 0 1024 1024" version="1.1" xmlns="http://www.w3.org/2000/svg"><path d="M819.2 92.16h-75.264A145.92 145.92 0 0 0 608.768 0H415.232a145.92 145.92 0 0 0-135.168 92.16H204.8a157.184 157.184 0 0 0-153.6 159.744v614.4A157.184 157.184 0 0 0 204.8 1024h614.4a157.184 157.184 0 0 0 153.6-159.744v-614.4a157.184 157.184 0 0 0-153.6-157.696zM415.232 102.4h194.048a43.008 43.008 0 0 1 0 86.016H415.232a43.008 43.008 0 0 1 0-86.016zM870.4 864.256A55.296 55.296 0 0 1 819.2 921.6H204.8a55.296 55.296 0 0 1-51.2-57.344v-614.4A55.296 55.296 0 0 1 204.8 194.56h73.728a145.408 145.408 0 0 0 136.704 96.256h194.048a145.408 145.408 0 0 0 136.192-96.256H819.2a55.296 55.296 0 0 1 51.2 57.856z" fill="#3E4055" /><path d="M665.6 614.4H358.4a51.2 51.2 0 0 0 0 102.4h307.2a51.2 51.2 0 0 0 0-102.4zM665.6 409.6H358.4a51.2 51.2 0 0 0 0 102.4h307.2a51.2 51.2 0 0 0 0-102.4z" fill="#3E4055" /></svg>