<?xml version="1.0" standalone="no"?><!DOCTYPE svg PUBLIC "-//W3C//DTD SVG 1.1//EN" "http://www.w3.org/Graphics/SVG/1.1/DTD/svg11.dtd"><svg class="icon" width="200px" height="200.00px" viewBox="0 0 1024 1024" version="1.1" xmlns="http://www.w3.org/2000/svg"><path d="M1001.2672 8.192a51.2 51.2 0 0 0-54.784 0l-921.6 559.616a51.2 51.2 0 0 0 14.336 93.696l381.44 94.72V972.8a51.2 51.2 0 1 0 102.4 0v-190.976l335.36 83.456H870.7072a51.2 51.2 0 0 0 51.2-44.544l102.4-762.88a51.2 51.2 0 0 0-23.04-49.664z m-218.624 218.624l-335.36 430.08-264.192-65.536z m45.056 524.8l-271.36-67.584 338.944-435.2z" fill="#3E4055" /></svg>