<?xml version="1.0" standalone="no"?><!DOCTYPE svg PUBLIC "-//W3C//DTD SVG 1.1//EN" "http://www.w3.org/Graphics/SVG/1.1/DTD/svg11.dtd"><svg class="icon" width="200px" height="200.00px" viewBox="0 0 1024 1024" version="1.1" xmlns="http://www.w3.org/2000/svg"><path d="M972.8 0H51.2a51.2 51.2 0 0 0-51.2 51.2v153.6a51.2 51.2 0 0 0 51.2 51.2h921.6a51.2 51.2 0 0 0 51.2-51.2V51.2a51.2 51.2 0 0 0-51.2-51.2zM307.2 179.2H102.4v-102.4h204.8zM972.8 384H51.2a51.2 51.2 0 0 0-51.2 51.2v153.6a51.2 51.2 0 0 0 51.2 51.2h921.6a51.2 51.2 0 0 0 51.2-51.2v-153.6a51.2 51.2 0 0 0-51.2-51.2zM307.2 563.2H102.4V460.8h204.8zM972.8 768H51.2a51.2 51.2 0 0 0-51.2 51.2v153.6a51.2 51.2 0 0 0 51.2 51.2h921.6a51.2 51.2 0 0 0 51.2-51.2v-153.6a51.2 51.2 0 0 0-51.2-51.2zM307.2 947.2H102.4v-102.4h204.8z" fill="#3E4055" /></svg>