<?xml version="1.0" standalone="no"?><!DOCTYPE svg PUBLIC "-//W3C//DTD SVG 1.1//EN" "http://www.w3.org/Graphics/SVG/1.1/DTD/svg11.dtd"><svg class="icon" width="200px" height="200.00px" viewBox="0 0 1024 1024" version="1.1" xmlns="http://www.w3.org/2000/svg"><path d="M921.226045 725.710113V614.14114a51.178428 51.178428 0 0 0-51.178428-51.178429h-307.07057V506.66644a255.892141 255.892141 0 1 0-102.356856 0V562.962711H153.549621a51.178428 51.178428 0 0 0-51.178428 51.178429v111.568973a153.535285 153.535285 0 1 0 102.356856 0V665.319568h255.892142v60.390545a153.535285 153.535285 0 1 0 102.356856 0V665.319568h255.892142v60.390545a153.535285 153.535285 0 1 0 102.356856 0zM358.263334 255.892141a153.535285 153.535285 0 1 1 153.535285 153.535285 153.535285 153.535285 0 0 1-153.535285-153.535285zM153.549621 921.211709a51.178428 51.178428 0 1 1 51.178428-51.178428 51.178428 51.178428 0 0 1-51.178428 51.178428z m358.248998 0a51.178428 51.178428 0 1 1 51.178428-51.178428 51.178428 51.178428 0 0 1-51.178428 51.178428z m358.248998 0a51.178428 51.178428 0 1 1 51.178428-51.178428 51.178428 51.178428 0 0 1-51.178428 51.178428z" fill="#3E4055" /></svg>