<?xml version="1.0" standalone="no"?><!DOCTYPE svg PUBLIC "-//W3C//DTD SVG 1.1//EN" "http://www.w3.org/Graphics/SVG/1.1/DTD/svg11.dtd"><svg class="icon" width="200px" height="200.00px" viewBox="0 0 1024 1024" version="1.1" xmlns="http://www.w3.org/2000/svg"><path d="M563.2 153.6H51.2a51.2 51.2 0 0 0 0 102.4h512a51.2 51.2 0 0 0 0-102.4zM51.2 563.2h358.4a51.2 51.2 0 0 0 0-102.4H51.2a51.2 51.2 0 0 0 0 102.4zM563.2 768H51.2a51.2 51.2 0 0 0 0 102.4h512a51.2 51.2 0 0 0 0-102.4zM1012.224 619.52a51.2 51.2 0 0 0-71.68-5.12L819.2 711.168V204.8a51.2 51.2 0 0 0-102.4 0v614.4a51.2 51.2 0 0 0 83.456 39.424l204.8-166.912a51.2 51.2 0 0 0 7.168-72.192z" fill="#3E4055" /></svg>