<?xml version="1.0" standalone="no"?><!DOCTYPE svg PUBLIC "-//W3C//DTD SVG 1.1//EN" "http://www.w3.org/Graphics/SVG/1.1/DTD/svg11.dtd"><svg class="icon" width="200px" height="200.00px" viewBox="0 0 1024 1024" version="1.1" xmlns="http://www.w3.org/2000/svg"><path d="M512 0a512 512 0 1 0 512 512A512 512 0 0 0 512 0z m0 921.6a409.6 409.6 0 1 1 409.6-409.6 409.6 409.6 0 0 1-409.6 409.6z" fill="#3E4055" /><path d="M626.688 614.4a146.432 146.432 0 0 1-228.864 0 51.2 51.2 0 0 0-78.336 66.048 245.76 245.76 0 0 0 385.536 0A51.2 51.2 0 1 0 626.688 614.4zM358.4 527.36a51.2 51.2 0 0 0 51.2-51.2v-51.2a51.2 51.2 0 0 0-102.4 0v51.2a51.2 51.2 0 0 0 51.2 51.2zM665.6 373.76a51.2 51.2 0 0 0-51.2 51.2v51.2a51.2 51.2 0 0 0 102.4 0v-51.2a51.2 51.2 0 0 0-51.2-51.2z" fill="#3E4055" /></svg>