<?xml version="1.0" standalone="no"?><!DOCTYPE svg PUBLIC "-//W3C//DTD SVG 1.1//EN" "http://www.w3.org/Graphics/SVG/1.1/DTD/svg11.dtd"><svg class="icon" width="200px" height="200.00px" viewBox="0 0 1024 1024" version="1.1" xmlns="http://www.w3.org/2000/svg"><path d="M512 0a512 512 0 1 0 512 512A512 512 0 0 0 512 0z m41.472 819.2H470.528a42.496 42.496 0 0 1-41.984-51.2l51.2-277.504a34.304 34.304 0 0 1 67.072 0l51.2 277.504a42.496 42.496 0 0 1-44.544 51.2zM512 376.832a85.504 85.504 0 1 1 85.504-85.504A85.504 85.504 0 0 1 512 376.832z" fill="#3E4055" /></svg>