<?xml version="1.0" standalone="no"?><!DOCTYPE svg PUBLIC "-//W3C//DTD SVG 1.1//EN" "http://www.w3.org/Graphics/SVG/1.1/DTD/svg11.dtd"><svg class="icon" width="200px" height="200.00px" viewBox="0 0 1024 1024" version="1.1" xmlns="http://www.w3.org/2000/svg"><path d="M1020.932608 494.08c0-3.584-137.216-366.08-508.928-366.08C149.508608 128 9.220608 478.208 3.588608 493.056a51.2 51.2 0 0 0 0 37.888c5.632 14.848 145.92 365.056 508.416 365.056 371.712 0 507.392-362.496 508.928-366.08a51.2 51.2 0 0 0 0-35.84z m-374.272-132.608a66.048 66.048 0 1 1-66.048-66.56 66.048 66.048 0 0 1 66.048 66.56zM512.004608 792.576c-251.904 0-373.248-214.016-404.992-280.576a526.848 526.848 0 0 1 218.624-235.52 230.4 230.4 0 1 0 370.688-2.56A501.76 501.76 0 0 1 917.508608 512c-29.184 65.024-145.92 280.576-405.504 280.576z" fill="#3E4055" /></svg>