<?xml version="1.0" standalone="no"?><!DOCTYPE svg PUBLIC "-//W3C//DTD SVG 1.1//EN" "http://www.w3.org/Graphics/SVG/1.1/DTD/svg11.dtd"><svg class="icon" width="200px" height="200.00px" viewBox="0 0 1024 1024" version="1.1" xmlns="http://www.w3.org/2000/svg"><path d="M914.710491 109.807786a374.878676 374.878676 0 0 0-561.80728 491.326003L282.932668 669.061397 90.385991 476.003986a51.073389 51.073389 0 0 0-72.524212 72.524213l193.057411 193.05741-193.057411 192.546677A51.073389 51.073389 0 1 0 89.875257 1006.145765l193.057411-193.057411 193.057411 193.057411a51.073389 51.073389 0 0 0 72.013478-72.013479L355.456881 741.585609l67.927607-67.927607a374.878676 374.878676 0 0 0 491.326003-561.80728z m-72.013479 459.660502A272.731898 272.731898 0 1 1 922.371499 374.878676a273.242632 273.242632 0 0 1-79.674487 193.05741z" fill="#3E4055" /></svg>