<?xml version="1.0" standalone="no"?><!DOCTYPE svg PUBLIC "-//W3C//DTD SVG 1.1//EN" "http://www.w3.org/Graphics/SVG/1.1/DTD/svg11.dtd"><svg class="icon" width="200px" height="200.00px" viewBox="0 0 1024 1024" version="1.1" xmlns="http://www.w3.org/2000/svg"><path d="M921.6 0H102.4a51.2 51.2 0 0 0-51.2 51.2v921.6a51.2 51.2 0 0 0 51.2 51.2h819.2a51.2 51.2 0 0 0 51.2-51.2V51.2a51.2 51.2 0 0 0-51.2-51.2z m-406.016 563.2H454.656v186.88H363.52V271.872H512c102.4 0 178.176 35.84 178.176 142.848S614.4 563.2 515.584 563.2z" fill="#3E4055" /><path d="M506.368 344.064h-51.2v149.504h54.272c62.464 0 92.672-26.624 92.672-78.848s-33.28-70.656-95.744-70.656z" fill="#3E4055" /></svg>