<?xml version="1.0" standalone="no"?><!DOCTYPE svg PUBLIC "-//W3C//DTD SVG 1.1//EN" "http://www.w3.org/Graphics/SVG/1.1/DTD/svg11.dtd"><svg class="icon" width="200px" height="200.00px" viewBox="0 0 1024 1024" version="1.1" xmlns="http://www.w3.org/2000/svg"><path d="M512 0a512 512 0 1 0 512 512A512 512 0 0 0 512 0z m0 921.6a409.6 409.6 0 1 1 409.6-409.6 409.6 409.6 0 0 1-409.6 409.6z" fill="#3E4055" /><path d="M712.704 311.296a51.2 51.2 0 0 0-72.192 0L512 439.808 383.488 311.296a51.2 51.2 0 0 0-72.192 72.192L439.808 512l-128.512 128.512a51.2 51.2 0 1 0 72.192 72.192L512 584.192l128.512 128.512a51.2 51.2 0 0 0 72.192-72.192L584.192 512l128.512-128.512a51.2 51.2 0 0 0 0-72.192z" fill="#3E4055" /></svg>