<?xml version="1.0" standalone="no"?><!DOCTYPE svg PUBLIC "-//W3C//DTD SVG 1.1//EN" "http://www.w3.org/Graphics/SVG/1.1/DTD/svg11.dtd"><svg class="icon" width="200px" height="200.00px" viewBox="0 0 1024 1024" version="1.1" xmlns="http://www.w3.org/2000/svg"><path d="M1017.547264 486.4l-230.4-398.848a51.2 51.2 0 0 0-44.544-25.6h-460.8a51.2 51.2 0 0 0-44.544 25.6L6.859264 486.4a51.2 51.2 0 0 0 0 51.2l230.4 398.848a51.2 51.2 0 0 0 44.544 25.6h460.8a51.2 51.2 0 0 0 44.544-25.6l230.4-398.848a51.2 51.2 0 0 0 0-51.2z m-304.128 373.248H311.499264L110.283264 512l201.216-347.648h401.92L914.123264 512z" fill="#3E4055" /><path d="M512.203264 512m-179.2 0a179.2 179.2 0 1 0 358.4 0 179.2 179.2 0 1 0-358.4 0Z" fill="#3E4055" /></svg>