<?xml version="1.0" standalone="no"?><!DOCTYPE svg PUBLIC "-//W3C//DTD SVG 1.1//EN" "http://www.w3.org/Graphics/SVG/1.1/DTD/svg11.dtd"><svg class="icon" width="200px" height="200.00px" viewBox="0 0 1024 1024" version="1.1" xmlns="http://www.w3.org/2000/svg"><path d="M952.32 317.44l-409.6-307.2a51.2 51.2 0 0 0-61.44 0l-409.6 307.2A51.2 51.2 0 0 0 51.2 358.4v614.4a51.2 51.2 0 0 0 51.2 51.2h819.2a51.2 51.2 0 0 0 51.2-51.2V358.4a51.2 51.2 0 0 0-20.48-40.96zM870.4 921.6h-307.2v-204.8a51.2 51.2 0 0 0-102.4 0v204.8H153.6V384l358.4-268.8 358.4 268.8z" fill="#3E4055" /></svg>