<?xml version="1.0" standalone="no"?><!DOCTYPE svg PUBLIC "-//W3C//DTD SVG 1.1//EN" "http://www.w3.org/Graphics/SVG/1.1/DTD/svg11.dtd"><svg class="icon" width="200px" height="200.00px" viewBox="0 0 1024 1024" version="1.1" xmlns="http://www.w3.org/2000/svg"><path d="M796.672 1001.472a51.2 51.2 0 0 1-24.064-6.144L512 858.112l-261.12 137.216a51.2 51.2 0 0 1-74.24-53.76l51.2-290.816L15.36 445.44A51.2 51.2 0 0 1 44.032 358.4l291.84-42.496L465.92 51.2a51.2 51.2 0 0 1 92.16 0l130.56 264.192 291.84 42.496a51.2 51.2 0 0 1 28.16 87.552l-210.944 204.8 51.2 290.816a51.2 51.2 0 0 1-51.2 59.904z" fill="#3E4055" /></svg>