<?xml version="1.0" standalone="no"?><!DOCTYPE svg PUBLIC "-//W3C//DTD SVG 1.1//EN" "http://www.w3.org/Graphics/SVG/1.1/DTD/svg11.dtd"><svg class="icon" width="200px" height="200.00px" viewBox="0 0 1024 1024" version="1.1" xmlns="http://www.w3.org/2000/svg"><path d="M921.6 768h-102.4v-102.4a51.2 51.2 0 0 0-102.4 0v102.4h-102.4a51.2 51.2 0 0 0 0 102.4h102.4v102.4a51.2 51.2 0 0 0 102.4 0v-102.4h102.4a51.2 51.2 0 0 0 0-102.4z" fill="#3E4055" /><path d="M942.592 358.4L614.4 30.208A102.4 102.4 0 0 0 542.208 0H153.6a102.4 102.4 0 0 0-102.4 102.4v819.2a102.4 102.4 0 0 0 102.4 102.4h358.4a51.2 51.2 0 0 0 0-102.4H153.6V102.4h358.4v256a102.4 102.4 0 0 0 102.4 102.4h256v102.4a51.2 51.2 0 0 0 102.4 0V430.592A102.4 102.4 0 0 0 942.592 358.4zM614.4 174.592L798.208 358.4H614.4z" fill="#3E4055" /></svg>