<?xml version="1.0" standalone="no"?><!DOCTYPE svg PUBLIC "-//W3C//DTD SVG 1.1//EN" "http://www.w3.org/Graphics/SVG/1.1/DTD/svg11.dtd"><svg class="icon" width="200px" height="200.00px" viewBox="0 0 1024 1024" version="1.1" xmlns="http://www.w3.org/2000/svg"><path d="M921.6 204.8h-179.2L619.52 40.96a102.4 102.4 0 0 0-81.92-40.96H102.4a102.4 102.4 0 0 0-102.4 102.4v819.2a102.4 102.4 0 0 0 102.4 102.4h409.6a51.2 51.2 0 0 0 0-102.4H102.4V307.2h819.2v204.8a51.2 51.2 0 0 0 102.4 0V307.2a102.4 102.4 0 0 0-102.4-102.4z m-384-102.4L614.4 204.8H102.4V102.4z" fill="#3E4055" /><path d="M972.8 716.8h-153.6v-153.6a51.2 51.2 0 0 0-102.4 0v153.6h-153.6a51.2 51.2 0 0 0 0 102.4h153.6v153.6a51.2 51.2 0 0 0 102.4 0v-153.6h153.6a51.2 51.2 0 0 0 0-102.4z" fill="#3E4055" /></svg>