<?xml version="1.0" standalone="no"?><!DOCTYPE svg PUBLIC "-//W3C//DTD SVG 1.1//EN" "http://www.w3.org/Graphics/SVG/1.1/DTD/svg11.dtd"><svg class="icon" width="200px" height="200.00px" viewBox="0 0 1024 1024" version="1.1" xmlns="http://www.w3.org/2000/svg"><path d="M512 0a512 512 0 1 0 512 512A512 512 0 0 0 512 0z m0 921.6a409.6 409.6 0 1 1 409.6-409.6 409.6 409.6 0 0 1-409.6 409.6z" fill="#3E4055" /><path d="M507.392 737.792m-60.416 0a60.416 60.416 0 1 0 120.832 0 60.416 60.416 0 1 0-120.832 0Z" fill="#3E4055" /><path d="M505.856 629.76a51.2 51.2 0 0 0 51.2-51.2v-307.2a51.2 51.2 0 0 0-102.4 0v307.2a51.2 51.2 0 0 0 51.2 51.2z" fill="#3E4055" /></svg>