<?xml version="1.0" standalone="no"?><!DOCTYPE svg PUBLIC "-//W3C//DTD SVG 1.1//EN" "http://www.w3.org/Graphics/SVG/1.1/DTD/svg11.dtd"><svg class="icon" width="200px" height="200.00px" viewBox="0 0 1024 1024" version="1.1" xmlns="http://www.w3.org/2000/svg"><path d="M665.6 53.76a102.4 102.4 0 0 0-102.4 2.56L241.152 256H51.2a51.2 51.2 0 0 0-51.2 51.2v409.6a51.2 51.2 0 0 0 51.2 51.2h189.952l318.976 199.168A102.4 102.4 0 0 0 716.8 880.64V143.36a102.4 102.4 0 0 0-51.2-89.6zM614.4 880.64l-331.264-204.8A51.2 51.2 0 0 0 256 665.6H102.4V358.4h153.6a51.2 51.2 0 0 0 27.136-7.68L614.4 143.36v737.28zM856.576 210.944a51.2 51.2 0 0 0-54.272 87.04 251.904 251.904 0 0 1 4.608 425.472 51.2 51.2 0 0 0 55.808 86.016 354.816 354.816 0 0 0-6.144-598.528z" fill="#3E4055" /></svg>