<?xml version="1.0" standalone="no"?><!DOCTYPE svg PUBLIC "-//W3C//DTD SVG 1.1//EN" "http://www.w3.org/Graphics/SVG/1.1/DTD/svg11.dtd"><svg class="icon" width="200px" height="200.00px" viewBox="0 0 1024 1024" version="1.1" xmlns="http://www.w3.org/2000/svg"><path d="M814.300389 559.589116a276.301536 276.301536 0 0 0-232.460333-492.958644A305.868859 305.868859 0 1 0 229.071306 565.196712a305.868859 305.868859 0 0 0-137.131205 254.890716v152.934429a50.978143 50.978143 0 0 0 50.978143 50.978143h509.781431a50.978143 50.978143 0 0 0 50.978143-50.978143h177.403938a50.978143 50.978143 0 0 0 50.978143-50.978143v-136.111642a277.321099 277.321099 0 0 0-117.75951-226.342956z m15.803224-226.342955a175.874594 175.874594 0 0 1-175.874594 175.364812h-25.489071A305.868859 305.868859 0 0 0 664.934429 157.371567a175.364812 175.364812 0 0 1 165.169184 175.364812zM193.896387 310.305996a203.912572 203.912572 0 1 1 203.912572 203.912573 203.912572 203.912572 0 0 1-203.912572-203.912573z m407.825145 611.737718h-407.825145v-101.956286a203.912572 203.912572 0 0 1 152.934429-196.775633V718.131141a50.978143 50.978143 0 0 0 101.956287 0v-94.819346a203.912572 203.912572 0 0 1 152.934429 196.775633z m228.382081-50.978143h-126.425795v-50.978143a305.868859 305.868859 0 0 0-80.545466-203.912573 173.835468 173.835468 0 0 1 31.606449-3.058689 175.874594 175.874594 0 0 1 175.874594 175.364813z" fill="#3E4055" /></svg>