<?xml version="1.0" standalone="no"?><!DOCTYPE svg PUBLIC "-//W3C//DTD SVG 1.1//EN" "http://www.w3.org/Graphics/SVG/1.1/DTD/svg11.dtd"><svg class="icon" width="200px" height="200.00px" viewBox="0 0 1024 1024" version="1.1" xmlns="http://www.w3.org/2000/svg"><path d="M870.4 62.464H153.6a153.6 153.6 0 0 0-153.6 153.6v585.216a153.6 153.6 0 0 0 153.6 153.6h716.8a153.6 153.6 0 0 0 153.6-153.6V216.064a153.6 153.6 0 0 0-153.6-153.6zM102.4 801.28V216.064a51.2 51.2 0 0 1 51.2-51.2h716.8a51.2 51.2 0 0 1 51.2 51.2v340.992L727.04 435.2a51.2 51.2 0 0 0-61.44 5.12l-460.8 409.6H153.6a51.2 51.2 0 0 1-51.2-48.64z m768 51.2H358.4l346.624-309.76L921.6 677.888v123.392a51.2 51.2 0 0 1-51.2 51.2z" fill="#3E4055" /><path d="M307.2 354.816m-102.4 0a102.4 102.4 0 1 0 204.8 0 102.4 102.4 0 1 0-204.8 0Z" fill="#3E4055" /></svg>