<?xml version="1.0" standalone="no"?><!DOCTYPE svg PUBLIC "-//W3C//DTD SVG 1.1//EN" "http://www.w3.org/Graphics/SVG/1.1/DTD/svg11.dtd"><svg class="icon" width="200px" height="200.00px" viewBox="0 0 1024 1024" version="1.1" xmlns="http://www.w3.org/2000/svg"><path d="M972.8 321.536V200.704a102.4 102.4 0 0 0-102.4-102.4h-358.4A102.4 102.4 0 0 0 425.984 51.2H102.4a102.4 102.4 0 0 0-102.4 102.4v665.6a153.6 153.6 0 0 0 153.6 153.6h716.8a153.6 153.6 0 0 0 153.6-153.6V409.6a102.4 102.4 0 0 0-51.2-88.064zM870.4 307.2h-272.384l-42.496-106.496H870.4z m51.2 512a51.2 51.2 0 0 1-51.2 51.2H153.6a51.2 51.2 0 0 1-51.2-51.2V153.6h323.584l89.6 223.744A51.2 51.2 0 0 0 563.2 409.6h358.4z" fill="#3E4055" /></svg>