<?xml version="1.0" standalone="no"?><!DOCTYPE svg PUBLIC "-//W3C//DTD SVG 1.1//EN" "http://www.w3.org/Graphics/SVG/1.1/DTD/svg11.dtd"><svg class="icon" width="200px" height="200.00px" viewBox="0 0 1024 1024" version="1.1" xmlns="http://www.w3.org/2000/svg"><path d="M921.6 0H102.4a51.2 51.2 0 0 0-51.2 51.2v921.6a51.2 51.2 0 0 0 51.2 51.2h819.2a51.2 51.2 0 0 0 51.2-51.2V51.2a51.2 51.2 0 0 0-51.2-51.2z m-224.768 739.328H583.68l-51.2-224.768c-7.168-35.84-14.336-70.656-19.456-105.472-6.144 34.816-12.288 70.144-19.456 105.472l-51.2 224.768H330.24l-87.04-454.656h92.16l35.84 222.208c6.656 48.128 14.336 95.744 20.992 144.896 9.216-51.2 18.944-97.792 28.672-144.896l51.2-222.208h77.824l51.2 222.208c9.728 46.592 18.944 95.744 28.672 144.896h3.072c6.656-51.2 13.312-97.792 20.48-144.896l36.352-222.208h86.016z" fill="#3E4055" /></svg>