<?xml version="1.0" standalone="no"?><!DOCTYPE svg PUBLIC "-//W3C//DTD SVG 1.1//EN" "http://www.w3.org/Graphics/SVG/1.1/DTD/svg11.dtd"><svg class="icon" width="200px" height="200.00px" viewBox="0 0 1024 1024" version="1.1" xmlns="http://www.w3.org/2000/svg"><path d="M818.524573 102.174858H205.475427a51.087429 51.087429 0 0 1 0-102.174858h613.049146a51.087429 51.087429 0 0 1 0 102.174858zM242.76925 631.440621L460.912571 852.138313V303.459327a51.087429 51.087429 0 0 1 102.174858 0v548.678986l218.143321-220.186818a51.087429 51.087429 0 0 1 72.033275 0 46.48956 46.48956 0 0 1 0 67.94628l-306.524573 309.589819a55.174423 55.174423 0 0 1-74.587647 0l-306.524573-309.589819a46.48956 46.48956 0 0 1 0-67.94628 51.087429 51.087429 0 0 1 77.142018-0.510874z" fill="#3E4055" /></svg>