<?xml version="1.0" standalone="no"?><!DOCTYPE svg PUBLIC "-//W3C//DTD SVG 1.1//EN" "http://www.w3.org/Graphics/SVG/1.1/DTD/svg11.dtd"><svg class="icon" width="200px" height="199.42px" viewBox="0 0 1027 1024" version="1.1" xmlns="http://www.w3.org/2000/svg"><path d="M514.781184 967.168a51.2 51.2 0 0 1-15.36 0s-27.136-8.704-40.448-14.336c-92.672-41.472-399.36-190.464-448.512-465.92a368.64 368.64 0 0 1 108.544-358.4A297.472 297.472 0 0 1 412.381184 73.728a302.592 302.592 0 0 1 102.4 63.488 302.08 302.08 0 0 1 102.4-63.488 297.984 297.984 0 0 1 291.328 55.296 368.64 368.64 0 0 1 108.544 358.4c-51.2 274.944-355.84 424.448-448.512 463.872-12.8 5.632-40.448 14.336-40.448 14.336a51.2 51.2 0 0 1-13.312 1.536z" fill="#3E4055" /></svg>