<?xml version="1.0" standalone="no"?><!DOCTYPE svg PUBLIC "-//W3C//DTD SVG 1.1//EN" "http://www.w3.org/Graphics/SVG/1.1/DTD/svg11.dtd"><svg class="icon" width="200px" height="199.80px" viewBox="0 0 1025 1024" version="1.1" xmlns="http://www.w3.org/2000/svg"><path d="M448.414918 484.24716L432.034465 563.078094a20.475567 20.475567 0 0 0 23.546902 24.058791l82.926046-13.821008A40.951134 40.951134 0 0 0 563.078094 563.078094l448.926807-450.462475a40.439245 40.439245 0 0 0 0-57.331588l-43.51058-43.51058a40.951134 40.951134 0 0 0-57.331588 0L460.700258 463.771593a40.951134 40.951134 0 0 0-12.28534 20.475567z" fill="#3E4055" /><path d="M943.411751 341.94197a51.188918 51.188918 0 0 0-36.344131 62.962368 409.511341 409.511341 0 1 1-286.14605-287.681717 51.188918 51.188918 0 1 0 27.642016-98.794611 511.889176 511.889176 0 1 0 358.322423 358.322424 51.188918 51.188918 0 0 0-63.474258-34.808464z" fill="#3E4055" /></svg>