<?xml version="1.0" standalone="no"?><!DOCTYPE svg PUBLIC "-//W3C//DTD SVG 1.1//EN" "http://www.w3.org/Graphics/SVG/1.1/DTD/svg11.dtd"><svg class="icon" width="200px" height="198.83px" viewBox="0 0 1030 1024" version="1.1" xmlns="http://www.w3.org/2000/svg"><path d="M937.102031 650.16197a425.105904 425.105904 0 0 0-221.994079-471.546044 204.132487 204.132487 0 0 0-403.161662 0A433.781534 433.781534 0 0 0 79.745587 561.364339a433.271203 433.271203 0 0 0 10.206624 88.797631 204.132487 204.132487 0 1 0 259.248258 312.833036 429.698885 429.698885 0 0 0 328.142973 0 204.132487 204.132487 0 1 0 259.758589-312.322704zM513.527121 102.066243a102.066243 102.066243 0 1 1-102.066243 102.066244 102.066243 102.066243 0 0 1 102.066243-102.066244zM207.328391 918.59619a102.066243 102.066243 0 1 1 102.066243-102.066243 102.066243 102.066243 0 0 1-102.066243 102.066243z m194.946525-45.419478A204.132487 204.132487 0 0 0 411.460878 816.529947a204.132487 204.132487 0 0 0-204.132487-204.132487 199.539506 199.539506 0 0 0-21.433911 0 331.20496 331.20496 0 0 1 141.872078-325.080985 204.132487 204.132487 0 0 0 372.031457 0A330.184297 330.184297 0 0 1 845.242412 561.364339a334.266947 334.266947 0 0 1-4.592981 51.033121 199.539506 199.539506 0 0 0-20.92358 0 204.132487 204.132487 0 0 0-204.132487 204.132487 204.132487 204.132487 0 0 0 9.185962 56.646765 341.411584 341.411584 0 0 1-222.50441 0zM819.725851 918.59619a102.066243 102.066243 0 1 1 102.066243-102.066243 102.066243 102.066243 0 0 1-102.066243 102.066243z" fill="#3E4055" /></svg>