<?xml version="1.0" standalone="no"?><!DOCTYPE svg PUBLIC "-//W3C//DTD SVG 1.1//EN" "http://www.w3.org/Graphics/SVG/1.1/DTD/svg11.dtd"><svg class="icon" width="200px" height="200.00px" viewBox="0 0 1024 1024" version="1.1" xmlns="http://www.w3.org/2000/svg"><path d="M1000.96 315.904l-460.8-307.2a51.2 51.2 0 0 0-56.832 0l-460.8 307.2A51.2 51.2 0 0 0 0 358.4v614.4a51.2 51.2 0 0 0 51.2 51.2h921.6a51.2 51.2 0 0 0 51.2-51.2V358.4a51.2 51.2 0 0 0-23.04-42.496zM512 112.64l362.496 241.664L512 556.032 149.504 354.304zM921.6 921.6H102.4V445.44l384.512 213.504a51.2 51.2 0 0 0 51.2 0L921.6 445.44z" fill="#3E4055" /></svg>