<?xml version="1.0" standalone="no"?><!DOCTYPE svg PUBLIC "-//W3C//DTD SVG 1.1//EN" "http://www.w3.org/Graphics/SVG/1.1/DTD/svg11.dtd"><svg class="icon" width="200px" height="200.00px" viewBox="0 0 1024 1024" version="1.1" xmlns="http://www.w3.org/2000/svg"><path d="M681.434809 563.301123a307.132584 307.132584 0 1 0-338.869618 0A307.132584 307.132584 0 0 0 204.867416 819.244944v153.566292a51.188764 51.188764 0 0 0 51.188764 51.188764h511.88764a51.188764 51.188764 0 0 0 51.188764-51.188764v-153.566292a307.132584 307.132584 0 0 0-137.697775-255.943821zM307.244944 307.357303a204.755056 204.755056 0 1 1 204.755056 204.755056 204.755056 204.755056 0 0 1-204.755056-204.755056z m409.510112 614.265169H307.244944v-102.377528a204.755056 204.755056 0 0 1 153.566292-197.58863V716.867416a51.188764 51.188764 0 0 0 102.377528 0v-95.211102A204.755056 204.755056 0 0 1 716.755056 819.244944z" fill="#3E4055" /></svg>