<?xml version="1.0" standalone="no"?><!DOCTYPE svg PUBLIC "-//W3C//DTD SVG 1.1//EN" "http://www.w3.org/Graphics/SVG/1.1/DTD/svg11.dtd"><svg class="icon" width="200px" height="200.00px" viewBox="0 0 1024 1024" version="1.1" xmlns="http://www.w3.org/2000/svg"><path d="M512 0a512 512 0 1 0 512 512A512 512 0 0 0 512 0z m0 921.6a409.6 409.6 0 1 1 409.6-409.6 409.6 409.6 0 0 1-409.6 409.6z" fill="#3E4055" /><path d="M548.864 225.28H471.552v105.984H259.584v307.2h73.728v-33.792h138.24v194.048h77.312v-191.488h138.752v30.72h76.8v-307.2h-215.552z m-77.312 310.272h-138.24V403.456h138.24z m216.064-132.096v132.096h-138.752V403.456z" fill="#3E4055" /></svg>