<?xml version="1.0" standalone="no"?><!DOCTYPE svg PUBLIC "-//W3C//DTD SVG 1.1//EN" "http://www.w3.org/Graphics/SVG/1.1/DTD/svg11.dtd"><svg class="icon" width="200px" height="200.00px" viewBox="0 0 1024 1024" version="1.1" xmlns="http://www.w3.org/2000/svg"><path d="M819.2 0H204.8a153.6 153.6 0 0 0-153.6 153.6v716.8a153.6 153.6 0 0 0 153.6 153.6h614.4a153.6 153.6 0 0 0 153.6-153.6V153.6a153.6 153.6 0 0 0-153.6-153.6z m51.2 870.4a51.2 51.2 0 0 1-51.2 51.2H204.8a51.2 51.2 0 0 1-51.2-51.2V153.6a51.2 51.2 0 0 1 51.2-51.2h614.4a51.2 51.2 0 0 1 51.2 51.2z" fill="#3E4055" /><path d="M716.8 256H307.2a51.2 51.2 0 0 0 0 102.4h409.6a51.2 51.2 0 0 0 0-102.4zM716.8 460.8H307.2a51.2 51.2 0 0 0 0 102.4h409.6a51.2 51.2 0 0 0 0-102.4zM716.8 665.6H307.2a51.2 51.2 0 0 0 0 102.4h409.6a51.2 51.2 0 0 0 0-102.4z" fill="#3E4055" /></svg>